<svg xmlns="http://www.w3.org/2000/svg" viewBox="0 0 640 180" width="640" height="180" role="img" aria-labelledby="t d">
  <title id="t">Languages across public repositories</title>
  <desc id="d">Share of code by language: Python 66.9%, TypeScript 31.2%, Shell 1.1%, CSS 0.7%.</desc>
  <style>
    text{font-family:'JetBrains Mono','IBM Plex Mono','Space Mono',ui-monospace,SFMono-Regular,Menlo,Consolas,'DejaVu Sans Mono',monospace;font-size:13px}
    .h{fill:#5C5C57;font-size:11px;letter-spacing:2.5px}.k{fill:#9A9A94}.v{fill:#EDEDE8}.n{fill:#5C5C57;font-size:11px}
  </style>
  <rect width="640" height="180" rx="6" fill="#080808"/>
  <rect x=".5" y=".5" width="639" height="179" rx="6" fill="none" stroke="#1C1C1A"/>
  <text class="h" x="24" y="34">LANGUAGES · PUBLIC REPOSITORIES</text>
  <line x1="24" y1="44" x2="616" y2="44" stroke="#1C1C1A"/>
    <text class="k" x="24" y="62">Python</text>
    <rect x="154" y="52" width="398" height="8" rx="2" fill="#151513"/>
    <rect x="154" y="52" width="266" height="8" rx="2" fill="#00FF66"/>
    <text class="v" x="616" y="62" text-anchor="end">66.9%</text>
    <text class="k" x="24" y="88">TypeScript</text>
    <rect x="154" y="78" width="398" height="8" rx="2" fill="#151513"/>
    <rect x="154" y="78" width="124" height="8" rx="2" fill="#5FCF8A"/>
    <text class="v" x="616" y="88" text-anchor="end">31.2%</text>
    <text class="k" x="24" y="114">Shell</text>
    <rect x="154" y="104" width="398" height="8" rx="2" fill="#151513"/>
    <rect x="154" y="104" width="4" height="8" rx="2" fill="#3A3A37"/>
    <text class="v" x="616" y="114" text-anchor="end">1.1%</text>
    <text class="k" x="24" y="140">CSS</text>
    <rect x="154" y="130" width="398" height="8" rx="2" fill="#151513"/>
    <rect x="154" y="130" width="3" height="8" rx="2" fill="#3A3A37"/>
    <text class="v" x="616" y="140" text-anchor="end">0.7%</text>
</svg>
